<svg xmlns="http://www.w3.org/2000/svg" width="1600" height="1200" viewBox="0 0 1600 1200">
  <defs>
    <linearGradient id="bg" x1="0" x2="1" y1="0" y2="1">
      <stop offset="0" stop-color="#fbf6ee"/>
      <stop offset="1" stop-color="#efe1cc"/>
    </linearGradient>
    <radialGradient id="gold" cx="28%" cy="25%" r="60%">
      <stop offset="0" stop-color="#c9a24a" stop-opacity="0.22"/>
      <stop offset="1" stop-color="#c9a24a" stop-opacity="0"/>
    </radialGradient>
    <radialGradient id="wine" cx="75%" cy="45%" r="70%">
      <stop offset="0" stop-color="#7b1f2d" stop-opacity="0.14"/>
      <stop offset="1" stop-color="#7b1f2d" stop-opacity="0"/>
    </radialGradient>
  </defs>
  <rect width="1600" height="1200" fill="url(#bg)"/>
  <rect width="1600" height="1200" fill="url(#gold)"/>
  <rect width="1600" height="1200" fill="url(#wine)"/>
  <g opacity="0.22" fill="none" stroke="#1a1410">
    <path d="M520 750 C 520 540, 680 430, 800 430 C 920 430, 1080 540, 1080 750 C 1080 920, 960 1040, 800 1040 C 640 1040, 520 920, 520 750 Z" stroke-width="2"/>
    <path d="M620 450 C 680 410, 740 390, 800 390 C 860 390, 920 410, 980 450" stroke-width="2"/>
    <path d="M560 780 C 640 690, 730 650, 800 650 C 870 650, 960 690, 1040 780" stroke-width="2"/>
  </g>
</svg>


